# xmcd CD database file
#
# Track frame offsets:
#	150
#	16452
#	34138
#	54429
#	73573
#	89051
#	105109
#	128182
#	142272
#	164665
#	186888
#
# Disc length: 2723 seconds
#
# Revision: 5
# Processed by: cddbd v1.5.1PL0 Copyright (c) Steve Scherf et al.
# Submitted via: CDex 1.51
#
DISCID=9c0aa10b
DTITLE=Hampton, Salvador,Terry, Moustache - Hampton, Salvador ... et leurs amis jouent Brassens
DYEAR=1983
DGENRE=Jazz
TTITLE0=La première fille
TTITLE1=Dans l'eau de la claire fontaine
TTITLE2=Le vieux Léon
TTITLE3=Pénélope
TTITLE4=A l'ombre du coeur de ma mie
TTITLE5=Oncle Archibald
TTITLE6=La route aux quatre chansons
TTITLE7=Les amoureux des bancs publics
TTITLE8=L'orage
TTITLE9=Le 22 septembre
TTITLE10=Les passantes
EXTD=YEAR: 1983
EXTT0=
EXTT1=
EXTT2=
EXTT3=
EXTT4=
EXTT5=
EXTT6=
EXTT7=
EXTT8=
EXTT9=
EXTT10=
PLAYORDER=
